<svg xmlns="http://www.w3.org/2000/svg" width="48" height="48" fill="none" viewBox="0 0 48 48"><path stroke="#FFFFFF" stroke-linejoin="round" stroke-width="2.4" d="m26.7 12.5.75 2.95c.7.25 1.35.6 1.95 1l2.9-.9 2.15 3.7-2.2 2.05c.05.35.1.7.1 1.1 0 .35-.05.7-.1 1.05l2.2 2.05-2.15 3.7-2.9-.9c-.6.45-1.25.75-1.95 1l-.75 2.95h-4.3l-.75-2.95c-.7-.25-1.35-.6-1.95-1l-2.9.9-2.15-3.7 2.2-2.05c-.05-.35-.1-.7-.1-1.05s.05-.75.1-1.1l-2.2-2.05 2.15-3.7 2.9.9c.6-.45 1.25-.75 1.95-1l.75-2.95z"/><circle cx="24.55" cy="22.4" r="4.25" stroke="#FFFFFF" stroke-width="2.4"/></svg>
